<svg xmlns="http://www.w3.org/2000/svg" viewBox="0 0 24 24" id="Food-Delivery-Find-Restuarant--Streamline-Ultimate.svg" height="24" width="24"><desc>Food Delivery Find Restuarant Streamline Icon: https://streamlinehq.com</desc><g><path d="m23.66 22.24 -5 -5a10.52 10.52 0 1 0 -1.41 1.41l5 5a1 1 0 0 0 1.42 0 1 1 0 0 0 -0.01 -1.41ZM2.05 10.57a8.52 8.52 0 1 1 8.52 8.52 8.53 8.53 0 0 1 -8.52 -8.52Z" fill="#000000" stroke-width="1"></path><path d="M7.27 5.22a3 3 0 0 0 -2.67 3.2 3.18 3.18 0 0 0 1.92 3.07v3.61a0.75 0.75 0 0 0 1.5 0v-3.61A3.17 3.17 0 0 0 10 8.42a3 3 0 0 0 -2.73 -3.2Z" fill="#000000" stroke-width="1"></path><path d="M15.72 5.22A0.74 0.74 0 0 0 15 6v3.4c0 0.18 -0.22 0.41 -0.58 0.55V6a0.75 0.75 0 1 0 -1.5 0v4c-0.37 -0.14 -0.59 -0.37 -0.59 -0.55V6a0.75 0.75 0 1 0 -1.5 0v3.4a2.34 2.34 0 0 0 2.09 2.11v3.59a0.75 0.75 0 1 0 1.5 0v-3.59a2.34 2.34 0 0 0 2.05 -2.11V6a0.75 0.75 0 0 0 -0.75 -0.78Z" fill="#000000" stroke-width="1"></path></g></svg>