<svg xmlns="http://www.w3.org/2000/svg" viewBox="-0.5 -0.5 64 64" id="Spaghetti--Streamline-Kawaii-Emoji.svg" height="64" width="64"><desc>Spaghetti Streamline Emoji: https://streamlinehq.com</desc><defs></defs><path d="M31.5 22.2075c-16.55136 0.08442000000000001 -29.61 6.81786 -29.61 15.120000000000001S12.79404 59.524919999999995 31.5 59.68116c18.70596 -0.15624 29.61 -14.05404 29.61 -22.35744S48.05136 22.29192 31.5 22.2075z" fill="#e0e0e0" stroke-width="1"></path><path d="M31.5 56.84994A36.0234 36.0234 0 0 1 4.1265 44.73C8.2089 52.015319999999996 17.73954 59.5665 31.5 59.68116c13.76046 -0.11466 23.2911 -7.665839999999999 27.373500000000003 -14.95494A36.0234 36.0234 0 0 1 31.5 56.84994z" fill="#bdbec0" stroke-width="1"></path><path d="M31.5 22.2075c-16.55136 0.08442000000000001 -29.61 6.81786 -29.61 15.120000000000001S12.79404 59.524919999999995 31.5 59.68116c18.70596 -0.15624 29.61 -14.05404 29.61 -22.35744S48.05136 22.29192 31.5 22.2075z" stroke="#45413c" stroke-linecap="round" stroke-linejoin="round" fill="none" stroke-width="1"></path><path d="M57.33 37.63872c0 8.00226 -11.564280000000002 13.23 -25.830000000000002 13.23s-25.830000000000002 -5.22774 -25.830000000000002 -13.23 11.564280000000002 -15.75 25.830000000000002 -15.75 25.830000000000002 7.74648 25.830000000000002 15.75z" fill="#fff48c" stroke="#45413c" stroke-linecap="round" stroke-linejoin="round" stroke-width="1"></path><path d="M30.688560000000003 50.84982a36.178380000000004 36.178380000000004 0 0 0 -15.246 -5.935860000000001 44.42004 44.42004 0 0 0 -6.57846 -0.59346c4.27644 3.9879000000000002 12.417300000000001 6.39702 21.824460000000002 6.52932z" fill="#ffe500" stroke="#45413c" stroke-linecap="round" stroke-linejoin="round" stroke-width="1"></path><path d="M34.87932 50.75658c-3.36798 -3.9879000000000002 -10.135440000000001 -7.21476 -18.078480000000003 -8.549100000000001a42.39018 42.39018 0 0 0 -10.0296 -0.504 12.16404 12.16404 0 0 0 3.50028 3.7648800000000002 40.45986 40.45986 0 0 1 5.889240000000001 0.5418 34.0578 34.0578 0 0 1 12.978000000000002 4.80312 58.0608 58.0608 0 0 0 2.35746 0.05418 56.1204 56.1204 0 0 0 3.3831 -0.11087999999999999z" fill="#fff48c" stroke="#45413c" stroke-linecap="round" stroke-linejoin="round" stroke-width="1"></path><path d="M35.12754 50.6268a1.9278 1.9278 0 0 0 0.504 -2.68128c-3.03408 -4.43016 -10.248840000000001 -8.076600000000001 -18.82818 -9.518040000000001a41.958 41.958 0 0 0 -10.735199999999999 -0.46116 1.84968 1.84968 0 0 0 -0.3591 0.07056 8.2089 8.2089 0 0 0 1.09494 3.74724 38.27502 38.27502 0 0 1 9.35172 0.4473c7.35336 1.2348 13.8978 4.41 16.285500000000003 7.8938999999999995a1.91016 1.91016 0 0 0 0.8819999999999999 0.7005600000000001q0.7900200000000001 -0.0252 1.5661800000000001 -0.07056a2.016 2.016 0 0 0 0.23814 -0.12852zm17.73828 -21.53214a39.276720000000005 39.276720000000005 0 0 1 -13.041 -6.288659999999999 38.112480000000005 38.112480000000005 0 0 0 -6.90984 -0.87318c3.38436 4.72626 10.4265 8.9964 18.94536 11.38032 1.6064999999999998 0.44982 3.22182 0.79506 4.82706 1.07982a14.09184 14.09184 0 0 0 -3.82158 -5.2983z" fill="#ffe500" stroke="#45413c" stroke-linecap="round" stroke-linejoin="round" stroke-width="1"></path><path d="M33.93936 22.65732a2.15838 2.15838 0 0 0 -0.6174 -0.7081200000000001c-0.6048 -0.027719999999999998 -1.20708 -0.06048 -1.82196 -0.06048 -0.23562 0 -0.46242 0.0189 -0.6967800000000001 0.02268a2.1609000000000003 2.1609000000000003 0 0 0 -0.6804 2.80098c2.86146 5.31342 10.48698 10.248840000000001 19.908 12.8835a49.73723999999999 49.73723999999999 0 0 0 7.182 1.43766 7.987140000000001 7.987140000000001 0 0 0 0.126 -1.39482 8.946 8.946 0 0 0 -0.54306 -3.0177 46.35162 46.35162 0 0 1 -5.59314 -1.1982599999999999c-8.07786 -2.2591799999999997 -15.01164 -6.58476 -17.263260000000002 -10.76544z" fill="#fff48c" stroke="#45413c" stroke-linecap="round" stroke-linejoin="round" stroke-width="1"></path><path d="M55.1565 43.235640000000004a8.9334 8.9334 0 0 0 2.03742 -4.12146 44.877419999999994 44.877419999999994 0 0 1 -7.86744 -1.4679c-8.064 -2.2591799999999997 -15.00282 -6.58476 -17.254440000000002 -10.76544a2.1672 2.1672 0 1 0 -3.81654 2.05632c2.86146 5.31216 10.48698 10.24758 19.908 12.8835a50.022000000000006 50.022000000000006 0 0 0 6.992999999999999 1.41498z" fill="#ffe500" stroke="#45413c" stroke-linecap="round" stroke-linejoin="round" stroke-width="1"></path><path d="M37.422 35.17416a2.1672 2.1672 0 0 0 0.4032 -3.969c-5.292000000000001 -2.90808 -14.37156 -2.9143800000000004 -23.70942 -0.01638a49.53564 49.53564 0 0 0 -7.7918400000000005 3.17394 9.04554 9.04554 0 0 0 -0.65646 3.2760000000000002 8.01234 8.01234 0 0 0 0.252 1.9013399999999998 43.108380000000004 43.108380000000004 0 0 1 9.47898 -4.21092c8.00226 -2.48346 16.17336 -2.6145 20.33514 -0.32634a2.15838 2.15838 0 0 0 1.6884000000000001 0.17136z" fill="#fff48c" stroke="#45413c" stroke-linecap="round" stroke-linejoin="round" stroke-width="1"></path><path d="M36.70002 30.618000000000002a2.1672 2.1672 0 0 0 0.40194 -3.969c-5.25798 -2.8979999999999997 -14.27202 -2.9106 -23.5557 -0.06048a16.884 16.884 0 0 0 -7.19838 7.7301 44.198280000000004 44.198280000000004 0 0 1 8.33112 -3.54564c8.001 -2.48346 16.17336 -2.6145 20.33388 -0.32634a2.15712 2.15712 0 0 0 1.6871399999999999 0.17136z" fill="#ffe500" stroke="#45413c" stroke-linecap="round" stroke-linejoin="round" stroke-width="1"></path><path d="M19.404 29.60118a2.16594 2.16594 0 0 1 1.32426 1.05966c2.25162 4.18068 9.1854 8.506260000000001 17.254440000000002 10.76544a42.734159999999996 42.734159999999996 0 0 0 10.8234 1.6380000000000001 2.1672 2.1672 0 0 1 -0.051660000000000005 4.3344 47.123999999999995 47.123999999999995 0 0 1 -11.939760000000001 -1.79676c-9.4122 -2.63592 -17.032680000000003 -7.5725999999999996 -19.899179999999998 -12.884760000000002a2.1672 2.1672 0 0 1 2.4885 -3.11598z" fill="#fff48c" stroke="#45413c" stroke-linecap="round" stroke-linejoin="round" stroke-width="1"></path><path d="M21.924 25.82118a2.16594 2.16594 0 0 1 1.32426 1.05966c2.25162 4.18068 9.1854 8.506260000000001 17.254440000000002 10.76544a42.734159999999996 42.734159999999996 0 0 0 10.8234 1.6380000000000001 2.1672 2.1672 0 0 1 -0.051660000000000005 4.3344 47.123999999999995 47.123999999999995 0 0 1 -11.939760000000001 -1.79676c-9.4122 -2.63592 -17.032680000000003 -7.5725999999999996 -19.899179999999998 -12.884760000000002a2.1672 2.1672 0 0 1 2.4885 -3.11598zm12.247200000000001 24.984540000000003c8.0325 -0.378 14.956199999999999 -2.45826 19.09152 -5.7544200000000005a39.78198 39.78198 0 0 0 -15.951600000000001 4.10886 48.7242 48.7242 0 0 0 -3.13992 1.6455600000000001z" fill="#ffe500" stroke="#45413c" stroke-linecap="round" stroke-linejoin="round" stroke-width="1"></path><path d="M56.01834 42.04746c-5.25168 -0.7434 -12.26106 0.64764 -19.172159999999998 3.9186a46.06308 46.06308 0 0 0 -8.02116 4.83966c0.8819999999999999 0.04032 1.7715599999999998 0.063 2.67498 0.063a54.369 54.369 0 0 0 5.276879999999999 -0.252c0.6022799999999999 -0.32004 1.20582 -0.63882 1.82952 -0.93366a37.497600000000006 37.497600000000006 0 0 1 13.318200000000001 -3.67416 13.19598 13.19598 0 0 0 4.09374 -3.96144z" fill="#fff48c" stroke="#45413c" stroke-linecap="round" stroke-linejoin="round" stroke-width="1"></path><path d="M57.052800000000005 39.61944a1.9215 1.9215 0 0 0 -0.22805999999999998 -0.1134c-5.35752 -2.02734 -13.895280000000001 -0.8190000000000001 -22.28436 3.15a44.747640000000004 44.747640000000004 0 0 0 -9.67806 6.1425 2.0412000000000003 2.0412000000000003 0 0 0 -0.7169399999999999 1.57248c1.5498 0.21420000000000003 3.1575599999999997 0.36413999999999996 4.81446 0.43722a41.958 41.958 0 0 1 7.3407599999999995 -4.4326799999999995c7.055999999999999 -3.339 14.55804 -4.56372 18.81936 -3.10212a9.08334 9.08334 0 0 0 1.9328400000000001 -3.654z" fill="#fff48c" stroke="#45413c" stroke-linecap="round" stroke-linejoin="round" stroke-width="1"></path><path d="M37.443419999999996 21.322979999999998a46.517939999999996 46.517939999999996 0 0 0 -18.29394 2.142 74.53908 74.53908 0 0 0 -4.1579999999999995 1.4288399999999999 7.37856 7.37856 0 0 0 -4.662 4.032 2.27808 2.27808 0 0 0 -0.04410000000000001 1.78038 2.40786 2.40786 0 0 0 0.71568 0.7938000000000001 7.26138 7.26138 0 0 0 3.24954 1.43262 4.41 4.41 0 0 1 1.9630800000000002 0.55692 2.84004 2.84004 0 0 1 0.8505 2.46204 8.53524 8.53524 0 0 0 0.02016 2.6989199999999998 4.219740000000001 4.219740000000001 0 0 0 3.32766 2.62962 5.6120399999999995 5.6120399999999995 0 0 0 3.0504599999999997 -0.11844 15.48666 15.48666 0 0 0 3.45618 -2.3410800000000003 7.434 7.434 0 0 1 6.87708 -1.1214c0.93618 0.378 1.7577 0.98658 2.6699400000000004 1.4162400000000002a6.93 6.93 0 0 0 5.2995600000000005 0.2898 5.90814 5.90814 0 0 0 3.6162 -3.8115 2.016 2.016 0 0 0 0.03528 -1.24614c-0.252 -0.66402 -1.0319399999999999 -1.0243799999999998 -1.24362 -1.701 -0.252 -0.81144 0.4662 -1.6380000000000001 1.26 -1.9341A24.29154 24.29154 0 0 1 47.94174 30.240000000000002a2.9673 2.9673 0 0 0 2.34612 -2.49732c0.0693 -1.4489999999999998 -1.26 -2.5540200000000004 -2.52 -3.2634a26.824140000000003 26.824140000000003 0 0 0 -10.324440000000001 -3.1563z" fill="#ff6242" stroke-width="1"></path><path d="M44.64936 33.35346a6.048 6.048 0 0 1 -2.88162 2.2680000000000002 6.93 6.93 0 0 1 -5.2995600000000005 -0.2898c-0.9122399999999999 -0.42966000000000004 -1.73376 -1.04202 -2.6699400000000004 -1.4162400000000002a7.434 7.434 0 0 0 -6.87708 1.1214 15.48666 15.48666 0 0 1 -3.45618 2.3410800000000003 5.6120399999999995 5.6120399999999995 0 0 1 -3.0504599999999997 0.11844 4.219740000000001 4.219740000000001 0 0 1 -3.3352199999999996 -2.6245800000000004 8.53524 8.53524 0 0 1 -0.02016 -2.6989199999999998 2.84004 2.84004 0 0 0 -0.8505 -2.46204 4.41 4.41 0 0 0 -1.9630800000000002 -0.55692A7.26138 7.26138 0 0 1 10.99602 27.72l-0.01638 -0.013859999999999999a5.39028 5.39028 0 0 0 -0.6552 1.2196799999999999 2.27808 2.27808 0 0 0 -0.04410000000000001 1.78038 2.40786 2.40786 0 0 0 0.71568 0.7938000000000001 7.26138 7.26138 0 0 0 3.24954 1.43262 4.41 4.41 0 0 1 1.9630800000000002 0.55692 2.84004 2.84004 0 0 1 0.8505 2.46204 8.53524 8.53524 0 0 0 0.02016 2.6989199999999998 4.219740000000001 4.219740000000001 0 0 0 3.3327 2.62962 5.6120399999999995 5.6120399999999995 0 0 0 3.0504599999999997 -0.11844 15.48666 15.48666 0 0 0 3.45618 -2.3410800000000003 7.434 7.434 0 0 1 6.87708 -1.1214c0.93618 0.378 1.7577 0.98658 2.6699400000000004 1.4162400000000002a6.93 6.93 0 0 0 5.2995600000000005 0.2898 5.91318 5.91318 0 0 0 3.6162 -3.8115 2.016 2.016 0 0 0 0.03528 -1.24614 3.2193 3.2193 0 0 0 -0.76734 -0.99414zM47.94174 26.46a24.29154 24.29154 0 0 0 -2.50362 0.46872c-0.79632 0.2961 -1.512 1.12266 -1.26 1.9341 0.21168 0.67662 0.99414 1.03698 1.24362 1.701 0.01638 0.04536 0.02142 0.09323999999999999 0.03402 0.14112A25.03998 25.03998 0 0 1 47.94174 30.240000000000002a2.9673 2.9673 0 0 0 2.34612 -2.49732 2.7846 2.7846 0 0 0 -0.90216 -2.0538 3.5279999999999996 3.5279999999999996 0 0 1 -1.44396 0.77112z" fill="#e04122" stroke-width="1"></path><path d="M37.443419999999996 21.322979999999998a46.517939999999996 46.517939999999996 0 0 0 -18.29394 2.142 74.53908 74.53908 0 0 0 -4.1579999999999995 1.4288399999999999 7.37856 7.37856 0 0 0 -4.662 4.032 2.27808 2.27808 0 0 0 -0.04410000000000001 1.78038 2.40786 2.40786 0 0 0 0.71568 0.7938000000000001 7.26138 7.26138 0 0 0 3.24954 1.43262 4.41 4.41 0 0 1 1.9630800000000002 0.55692 2.84004 2.84004 0 0 1 0.8505 2.46204 8.53524 8.53524 0 0 0 0.02016 2.6989199999999998 4.219740000000001 4.219740000000001 0 0 0 3.32766 2.62962 5.6120399999999995 5.6120399999999995 0 0 0 3.0504599999999997 -0.11844 15.48666 15.48666 0 0 0 3.45618 -2.3410800000000003 7.434 7.434 0 0 1 6.87708 -1.1214c0.93618 0.378 1.7577 0.98658 2.6699400000000004 1.4162400000000002a6.93 6.93 0 0 0 5.2995600000000005 0.2898 5.90814 5.90814 0 0 0 3.6162 -3.8115 2.016 2.016 0 0 0 0.03528 -1.24614c-0.252 -0.66402 -1.0319399999999999 -1.0243799999999998 -1.24362 -1.701 -0.252 -0.81144 0.4662 -1.6380000000000001 1.26 -1.9341A24.29154 24.29154 0 0 1 47.94174 30.240000000000002a2.9673 2.9673 0 0 0 2.34612 -2.49732c0.0693 -1.4489999999999998 -1.26 -2.5540200000000004 -2.52 -3.2634a26.824140000000003 26.824140000000003 0 0 0 -10.324440000000001 -3.1563z" stroke="#45413c" stroke-linecap="round" stroke-linejoin="round" fill="none" stroke-width="1"></path><path d="M12.302639999999998 9.18414a2.6145 2.6145 0 0 0 2.6308800000000003 2.08404l6.165179999999999 -0.03024a1.26 1.26 0 0 1 1.26 1.2537h0a1.26 1.26 0 0 1 -1.26 1.2663l-6.165179999999999 0.03024a2.61324 2.61324 0 0 0 -2.6094600000000003 2.10924 2.52 2.52 0 0 0 2.49984 2.93202l11.34 -0.0567a3.7800000000000002 3.7800000000000002 0 0 0 3.7611 -3.7989h0l21.29778 -0.10584a2.61324 2.61324 0 0 0 2.6094600000000003 -2.10924A2.52 2.52 0 0 0 51.3324 9.828l-21.42 0.10584h0A3.7800000000000002 3.7800000000000002 0 0 0 26.113500000000002 6.174l-11.34 0.0567a2.52 2.52 0 0 0 -2.47086 2.95344z" fill="#c0dceb" stroke-linecap="round" stroke-linejoin="round" stroke="#45413c" stroke-width="1"></path><path d="M19.21878 46.62a1.8900000000000001 1.8900000000000001 0 0 1 -1.4742 -0.70686 17.52282 17.52282 0 0 1 -3.3805799999999997 -7.69104 40.413239999999995 40.413239999999995 0 0 1 -0.58086 -7.9191 87.49314 87.49314 0 0 1 3.4146 -25.648560000000003 1.8900000000000001 1.8900000000000001 0 0 1 3.61368 1.1125800000000001 83.82402 83.82402 0 0 0 -3.25332 24.54606 36.21492 36.21492 0 0 0 0.504 7.182 13.81086 13.81086 0 0 0 2.6233199999999997 6.0580799999999995A1.8900000000000001 1.8900000000000001 0 0 1 19.21878 46.62z" fill="#fff48c" stroke="#45413c" stroke-linecap="round" stroke-linejoin="round" stroke-width="1"></path><path d="M20.07558 20.62872a1.8900000000000001 1.8900000000000001 0 0 0 1.87362 -1.69974 71.12826 71.12826 0 0 1 2.6460000000000004 -13.16196 1.8900000000000001 1.8900000000000001 0 0 0 -1.5624 -2.43054 1.94922 1.94922 0 0 0 -2.08026 1.4011200000000001 75.07079999999999 75.07079999999999 0 0 0 -2.7594 13.81086 1.8900000000000001 1.8900000000000001 0 0 0 1.8824400000000001 2.08026z" fill="#ffe500" stroke="#45413c" stroke-linecap="round" stroke-linejoin="round" stroke-width="1"></path><path d="M23.85558 20.62872a1.8900000000000001 1.8900000000000001 0 0 0 1.87362 -1.69974 71.12826 71.12826 0 0 1 2.6460000000000004 -13.16196 1.8900000000000001 1.8900000000000001 0 0 0 -1.5624 -2.43054 1.94922 1.94922 0 0 0 -2.08026 1.4011200000000001 75.07079999999999 75.07079999999999 0 0 0 -2.7594 13.81086 1.8900000000000001 1.8900000000000001 0 0 0 1.8824400000000001 2.08026z" fill="#ffe500" stroke="#45413c" stroke-linecap="round" stroke-linejoin="round" stroke-width="1"></path><path d="M21.735 32.36184a3.5431199999999996 2.12688 0 1 0 7.086239999999999 0 3.5431199999999996 2.12688 0 1 0 -7.086239999999999 0" fill="#f0d5a8" stroke="#45413c" stroke-linecap="round" stroke-linejoin="round" stroke-width="1"></path><path d="M30.3975 25.274340000000002a3.5431199999999996 2.12688 0 1 0 7.086239999999999 0 3.5431199999999996 2.12688 0 1 0 -7.086239999999999 0" fill="#f0d5a8" stroke="#45413c" stroke-linecap="round" stroke-linejoin="round" stroke-width="1"></path><path d="M33.075 38.52072a6.3 3.7800000000000002 0 1 0 12.6 0 6.3 3.7800000000000002 0 1 0 -12.6 0" fill="#f0d5a8" stroke="#45413c" stroke-linecap="round" stroke-linejoin="round" stroke-width="1"></path><path d="M50.13414 21.041999999999998a10.968300000000001 10.968300000000001 0 0 0 -1.0647 -0.04158 8.47728 8.47728 0 0 0 -5.33484 2.21508 6.69186 6.69186 0 0 0 -1.78794 2.3688c-1.12644 2.67624 1.4112000000000002 5.418 4.6116 5.292000000000001 5.0841 -0.18647999999999998 7.869960000000001 -5.2302599999999995 8.75826 -7.1757a0.95004 0.95004 0 0 0 -0.39312 -1.21842 11.94102 11.94102 0 0 0 -4.7892600000000005 -1.44018z" fill="#6dd627" stroke-width="1"></path><path d="M49.14 24.71868a17.66016 17.66016 0 0 0 -7.163099999999999 3.5582399999999996" stroke="#46b000" stroke-linecap="round" stroke-linejoin="round" fill="none" stroke-width="1"></path><path d="M50.13414 21.041999999999998a10.968300000000001 10.968300000000001 0 0 0 -1.0647 -0.04158 8.47728 8.47728 0 0 0 -5.33484 2.21508 6.69186 6.69186 0 0 0 -1.78794 2.3688c-1.12644 2.67624 1.4112000000000002 5.418 4.6116 5.292000000000001 5.0841 -0.18647999999999998 7.869960000000001 -5.2302599999999995 8.75826 -7.1757a0.95004 0.95004 0 0 0 -0.39312 -1.21842 11.94102 11.94102 0 0 0 -4.7892600000000005 -1.44018z" stroke="#45413c" stroke-linecap="round" stroke-linejoin="round" fill="none" stroke-width="1"></path></svg>